<?xml version="1.0" standalone="no"?><!DOCTYPE svg PUBLIC "-//W3C//DTD SVG 1.1//EN" "http://www.w3.org/Graphics/SVG/1.1/DTD/svg11.dtd"><svg t="1516951373217" class="icon" style="" viewBox="0 0 1024 1024" version="1.1" xmlns="http://www.w3.org/2000/svg" p-id="171570" xmlns:xlink="http://www.w3.org/1999/xlink" width="48" height="48"><defs><style type="text/css"></style></defs><path d="M594.432 731.136h44.544l8.192-49.664h-44.544l-8.192 49.664z" fill="#b4bfcc" p-id="171571"></path><path d="M409.088 673.28c-10.24 0-18.944-8.704-18.944-18.944v-53.248c0-10.24 8.704-18.944 18.944-18.944h47.616c7.68-52.224 29.184-100.352 61.44-139.264H290.816c-30.208 0-66.56-24.064-69.12-54.272l10.24-41.472 28.16-74.24 0.512-1.536c2.56-14.848 9.216-17.92 17.92-29.184h437.76c9.216 11.776 14.848 14.848 17.408 29.184l26.112 69.12c22.016 1.536 43.52 6.144 63.488 12.288l-32.768-92.672C778.24 195.072 732.16 163.328 675.84 163.328H317.952c-64.512 0-103.936 41.984-114.688 96.768l-38.4 115.2c-3.584-2.048-7.168-3.072-11.776-3.072H69.632c-13.312-0.512-23.552 10.24-23.552 23.04v20.48c0 12.8 10.752 23.552 23.552 23.552l31.744 5.632c-10.24 19.968-15.872 42.496-15.872 68.608l-11.776 135.168c0 4.096 0.512 8.192 1.024 11.776-0.512 2.56-1.024 5.12-1.024 7.68v162.816c0 23.04 18.944 41.984 41.984 41.984h64c23.04 0 41.984-18.944 41.984-41.984v-52.224h279.04c-20.48-31.232-35.328-67.072-41.984-104.96h-49.664v-0.512M251.392 701.44c-35.328 0-63.488-28.672-63.488-63.488 0-35.328 28.672-63.488 63.488-63.488 35.328 0 63.488 28.16 63.488 63.488 0 34.816-28.16 63.488-63.488 63.488m593.92-67.584" fill="#b4bfcc" p-id="171572"></path><path d="M655.872 625.664a81.408 81.408 0 1 0 162.816 0 81.408 81.408 0 1 0-162.816 0Z" fill="#b4bfcc" p-id="171573"></path><path d="M737.28 384.512c-133.12 0-240.64 107.52-240.64 240.64s107.52 240.64 240.64 240.64 240.64-107.52 240.64-240.64c0-132.608-107.52-240.64-240.64-240.64z m162.304 279.552h-31.744c-3.072 6.656-7.168 19.968-12.8 29.184l22.528 20.992c7.168 7.168 7.168 18.432 0 25.6l-25.6 25.6c-7.168 7.168-18.432 7.168-25.088 0l-21.504-22.528c-9.728 5.632-23.04 9.728-29.184 12.8v31.744c0 10.24-10.752 17.92-20.48 17.92h-36.352c-10.24 0-20.48-8.192-20.48-17.92v-31.744c-6.656-3.072-19.968-7.168-29.184-12.8l-20.992 22.528c-7.168 7.168-18.432 7.168-25.6 0l-25.6-25.6c-7.168-7.168-7.168-18.432 0-25.088l22.528-21.504c-5.632-9.728-9.728-23.04-12.8-29.184h-31.744c-10.24 0-17.92-10.752-17.92-20.48v-36.352c0-10.24 8.192-20.48 17.92-20.48h31.744c3.072-6.656 7.168-19.968 12.8-29.184l-22.528-20.992c-7.168-7.168-7.168-18.432 0-25.6l25.6-25.6c7.168-7.168 18.432-7.168 25.088 0l22.016 22.528c9.728-5.632 23.04-9.728 29.184-12.8v-31.744c0-10.24 10.752-17.92 20.48-17.92h36.352c10.24 0 20.48 8.192 20.48 17.92v31.744c6.656 3.072 19.968 7.168 29.184 12.8l20.992-22.528c7.168-7.168 18.432-7.168 25.6 0l25.6 25.6c7.168 7.168 7.168 18.432 0 25.088l-22.528 21.504c5.632 9.728 9.728 23.04 12.8 29.184h31.744c10.24 0 17.92 10.752 17.92 20.48v36.352c-0.512 9.728-8.192 20.48-18.432 20.48z" fill="#b4bfcc" p-id="171574"></path></svg>