<?xml version="1.0" standalone="no"?><!DOCTYPE svg PUBLIC "-//W3C//DTD SVG 1.1//EN" "http://www.w3.org/Graphics/SVG/1.1/DTD/svg11.dtd"><svg t="1516867818140" class="icon" style="" viewBox="0 0 1024 1024" version="1.1" xmlns="http://www.w3.org/2000/svg" p-id="17908" xmlns:xlink="http://www.w3.org/1999/xlink" width="48" height="48"><defs><style type="text/css"></style></defs><path d="M902.91 491.611l-178.525-178.525c-11.286-11.286-29.855-11.286-41.142 0s-11.286 29.855 0 41.142l128.159 128.159h-401.59c-16.020 0-29.127 13.107-29.127 29.127s13.107 29.127 29.127 29.127h402.925l-129.494 129.494c-11.286 11.286-11.286 29.855 0 41.142s29.855 11.286 41.142 0l178.525-178.525c11.408-11.286 11.408-29.855 0-41.142z" fill="" p-id="17909"></path><path d="M641.858 765.406c-16.142 0-29.127 12.986-29.127 29.127v32.039c0 21.36-17.476 38.836-38.836 38.836h-364.939c-21.36 0-38.836-17.476-38.836-38.836v-628.295c0-21.36 17.476-38.836 38.836-38.836h364.939c21.36 0 38.836 17.476 38.836 38.836v32.039c0 16.142 12.986 29.127 29.127 29.127s29.127-12.986 29.127-29.127v-32.039c0-53.521-43.569-97.090-97.090-97.090h-364.939c-53.521 0-97.090 43.569-97.090 97.090v628.295c0 53.521 43.569 97.090 97.090 97.090h364.939c53.521 0 97.090-43.569 97.090-97.090v-32.039c0-16.020-13.107-29.127-29.127-29.127z" fill="" p-id="17910"></path></svg>