<?xml version="1.0" standalone="no"?><!DOCTYPE svg PUBLIC "-//W3C//DTD SVG 1.1//EN" "http://www.w3.org/Graphics/SVG/1.1/DTD/svg11.dtd"><svg t="1516935569813" class="icon" style="" viewBox="0 0 1024 1024" version="1.1" xmlns="http://www.w3.org/2000/svg" p-id="9038" xmlns:xlink="http://www.w3.org/1999/xlink" width="48" height="48"><defs><style type="text/css"></style></defs><path d="M182.678985 851.125819H849.749706V184.055098H182.678985v667.070721z m90.995465-576.075256h485.079792v485.079791h-485.079792v-485.079791zM76.718293 305.325046c25.11406 0 45.411725-20.297665 45.411725-45.411725v-136.40719h136.40719c25.11406 0 45.411725-20.297665 45.411725-45.411725 0-25.11406-20.297665-45.411725-45.411725-45.411725H76.718293c-25.11406 0-45.411725 20.297665-45.411725 45.411725v181.990929c-0.172014 24.942046 20.125651 45.239711 45.411725 45.239711z m181.818915 606.34974H122.130018v-136.40719c0-25.11406-20.297665-45.411725-45.411725-45.411725-25.11406 0-45.411725 20.297665-45.411725 45.411725V957.086511c0 25.11406 20.297665 45.411725 45.411725 45.411725h181.990929c25.11406 0 45.411725-20.297665 45.411725-45.411725-0.172014-25.11406-20.469679-45.411725-45.583739-45.411725z m697.345204-879.164119H773.891483c-25.11406 0-45.411725 20.297665-45.411725 45.411725 0 25.11406 20.297665 45.411725 45.411725 45.411725h136.40719v136.40719c0 25.11406 20.297665 45.411725 45.411725 45.411725 25.11406 0 45.411725-20.297665 45.411725-45.411725V77.922392c0.172014-25.11406-20.125651-45.411725-45.239711-45.411725z m0 697.345204c-25.11406 0-45.411725 20.297665-45.411725 45.411725v136.40719H774.063497c-25.11406 0-45.411725 20.297665-45.411725 45.411725 0 25.11406 20.297665 45.411725 45.411725 45.411725h181.990929c25.11406 0 45.411725-20.297665 45.411726-45.411725V775.267596c-0.172014-25.11406-20.469679-45.411725-45.58374-45.411725z" p-id="9039"></path></svg>