<?xml version="1.0" standalone="no"?><!DOCTYPE svg PUBLIC "-//W3C//DTD SVG 1.1//EN" "http://www.w3.org/Graphics/SVG/1.1/DTD/svg11.dtd"><svg t="1516947125735" class="icon" style="" viewBox="0 0 1024 1024" version="1.1" xmlns="http://www.w3.org/2000/svg" p-id="84521" xmlns:xlink="http://www.w3.org/1999/xlink" width="48" height="48"><defs><style type="text/css"></style></defs><path d="M65.892824 504.84163c27.646966-23.671231 55.61015-46.986335 82.888708-71.075095 116.587798-102.970009 232.966831-206.173343 349.455363-309.258991 4.253065-3.764924 8.797785-7.196234 14.223615-11.609966 68.757195 60.74023 136.952568 120.986179 207.882346 183.644176 0-32.735089 0-62.792057 0-93.976763 33.404363 0 64.48878 0 98.356723 0 0 5.514862 0 11.602802 0 17.691766 0 49.920294-0.256862 99.842635 0.30189 149.755766 0.074705 6.698884 2.268779 15.535557 6.837037 19.688332 41.65977 37.859029 84.055333 74.911654 126.304556 112.121875 1.615878 1.425534 3.957315 2.03136 5.964115 3.017875 0 1.161508 0 2.32404 0 3.485548-19.743594 21.953018-39.486164 43.903988-60.318607 67.069682C769.150763 461.611009 641.132087 348.372653 511.99386 234.144713 383.312049 347.962288 255.602426 460.923314 126.934943 574.726562c-20.608329-22.415574-40.825736-44.408503-61.042119-66.399384C65.892824 507.16567 65.892824 506.003138 65.892824 504.84163z" p-id="84522" fill="#b4bfcc"></path><path d="M818.049749 911.102421c-67.443207 0-134.004281 0-202.708262 0 0-90.990612 0-181.832837 0-274.09855-67.902693 0-133.679878 0-201.373807 0 0 90.467677 0 180.752174 0 272.455041-72.314378 0-142.735549 0-214.033735 0-0.369431-5.099379-0.973211-9.587816-0.978328-14.074205-0.054238-98.694431-0.171924-197.391931 0.247652-296.085338 0.028654-6.758238 2.112205-15.855867 6.718327-19.906307 101.976331-89.67867 204.443872-178.796542 307.95933-269.017591 29.364157 26.108863 58.330228 51.817595 87.248202 77.583634 68.916838 61.400294 137.944199 122.678808 206.463976 184.518122 5.679622 5.12394 11.142292 14.092626 11.192437 21.31035 0.721465 101.594619 0.503491 203.194356 0.440043 304.793068C819.222514 902.478606 818.513329 906.379637 818.049749 911.102421z" p-id="84523" fill="#b4bfcc"></path></svg>