<?xml version="1.0" standalone="no"?><!DOCTYPE svg PUBLIC "-//W3C//DTD SVG 1.1//EN" "http://www.w3.org/Graphics/SVG/1.1/DTD/svg11.dtd"><svg t="1516867957809" class="icon" style="" viewBox="0 0 1024 1024" version="1.1" xmlns="http://www.w3.org/2000/svg" p-id="19290" xmlns:xlink="http://www.w3.org/1999/xlink" width="48" height="48"><defs><style type="text/css"></style></defs><path d="M762.6 662.7c-6.2 0-12.1-2.5-16.5-6.9s-6.8-10.3-6.8-16.5V417.5c0-120.4-101.8-218.4-227-218.4s-227 98-227 218.4v221.6c0 6.3-2.4 12.3-6.8 16.7-4.4 4.4-10.3 6.9-16.6 6.9-13 0-23.5-10.5-23.6-23.4V417.6c0-71 28.6-137.8 80.6-188 51.7-49.9 120.4-77.4 193.5-77.4 73 0 141.7 27.5 193.5 77.4 51.9 50.2 80.5 116.9 80.5 187.9v221.9c-0.1 12.8-10.6 23.2-23.5 23.2h-0.3z" p-id="19291"></path><path d="M185.7 861.9c-7.3 0-26-1.4-40.4-14.8-7.5-6.9-16.4-19.6-16.4-40.5 0-29.8 32.9-75.5 93.6-149.4l3-3.6c7.2-8.7 13.4-16.3 17.3-21.6 4.4-5.8 11.3-9.2 18.7-9.2 5.2 0 10.1 1.7 14.3 4.8 10.3 7.8 12.2 22.7 4.4 33-4.7 6.1-11.7 14.8-21.4 26.4-15.2 18.5-36 43.8-53.4 67.8-20.8 28.8-26.9 42.5-28.6 48.1l-4.3 13.6 13.8-1.7h1.1l389-0.5c13 0 23.5 10.5 23.5 23.5s-10.5 23.5-23.5 23.5l-388.3 0.5h-2.4z" p-id="19292"></path><path d="M835.4 861.9l-388.2-0.5c-13 0-23.5-10.5-23.5-23.5s10.5-23.5 23.5-23.5l390.8 0.5h12.7l-4-12c-2.3-7-9.2-21.1-28.6-47.9-15.9-22-35-45.3-50.4-64.1l-6.1-7.5c-7.4-9.1-13.9-16.9-18.4-22.7-7.8-10.2-5.8-25 4.5-33 4.1-3.2 9-4.8 14.1-4.8 7.4 0 14.3 3.4 18.9 9.3 4.7 6.1 12.6 15.8 20.3 25.1 60.7 73.9 93.6 119.6 93.6 149.4 0 20.9-8.9 33.6-16.4 40.5-14.3 13.4-32.9 14.8-40.2 14.8h-2.6zM593.8 181.5c-10.2 0-18.4-8.3-18.4-18.4 0-34.2-27.8-62.1-62.1-62.1-34.2 0-62.1 27.8-62.1 62.1 0 10.2-8.3 18.4-18.4 18.4-10.2 0-18.4-8.3-18.4-18.4 0-54.5 44.4-98.9 98.9-98.9 54.5 0 98.9 44.4 98.9 98.9 0 10.2-8.3 18.4-18.4 18.4z" p-id="19293"></path><path d="M511.3 959.6c-69.4 0-125.9-56.5-125.9-125.9 0-9.9 8-17.9 17.9-17.9 9.9 0 17.9 8 17.9 17.9 0 49.7 40.4 90.1 90.1 90.1 49.7 0 90.1-40.4 90.1-90.1 0-9.9 8-17.9 17.9-17.9 9.9 0 17.9 8 17.9 17.9 0 69.4-56.5 125.9-125.9 125.9z" p-id="19294"></path></svg>