<?xml version="1.0" standalone="no"?><!DOCTYPE svg PUBLIC "-//W3C//DTD SVG 1.1//EN" "http://www.w3.org/Graphics/SVG/1.1/DTD/svg11.dtd"><svg t="1516950554611" class="icon" style="" viewBox="0 0 1024 1024" version="1.1" xmlns="http://www.w3.org/2000/svg" p-id="144834" xmlns:xlink="http://www.w3.org/1999/xlink" width="48" height="48"><defs><style type="text/css"></style></defs><path d="M966.4 784H57.6c-32 0-57.6-25.6-57.6-57.6V89.6C0 57.6 22.4 32 57.6 32h912c32 0 54.4 25.6 54.4 57.6v636.8c0 28.8-22.4 57.6-57.6 57.6m-9.6-672c0-3.2-6.4-9.6-12.8-9.6H73.6c-3.2-3.2-9.6 6.4-9.6 9.6V704c0 6.4 3.2 9.6 9.6 9.6h867.2c6.4 0 9.6-3.2 9.6-9.6V112h6.4m-230.4 192h118.4v348.8h-118.4V304m-192-108.8h121.6v454.4h-121.6V195.2m-188.8 217.6h118.4v240h-118.4v-240m-172.8 105.6h118.4v134.4H172.8v-134.4m179.2 310.4c0-6.4 3.2-9.6 9.6-9.6h297.6c6.4 0 9.6 3.2 9.6 9.6v96H864V992H153.6v-67.2H352v-96m0 0z" p-id="144835" fill="#b4bfcc"></path></svg>