<?xml version="1.0" standalone="no"?><!DOCTYPE svg PUBLIC "-//W3C//DTD SVG 1.1//EN" "http://www.w3.org/Graphics/SVG/1.1/DTD/svg11.dtd"><svg t="1516949965443" class="icon" style="" viewBox="0 0 1024 1024" version="1.1" xmlns="http://www.w3.org/2000/svg" p-id="130933" xmlns:xlink="http://www.w3.org/1999/xlink" width="48" height="48"><defs><style type="text/css"></style></defs><path d="M269.4658272 267.452416c0 113.61029653 89.2454688 205.71022187 199.3313856 205.71022187s199.33138453-92.09992533 199.33138453-205.71022187-89.2454688-205.71022187-199.33138453-205.71022187-199.33138453 92.10356587-199.3313856 205.71022187zM966.85624853 748.75608213l0.2330176-86.71141013s-57.23477333-11.337728-58.17048213-15.16794347a261.226496 261.226496 0 0 0-3.5207392-12.51009386c6.72472213-12.42999467 38.93930667-39.71845653 38.93930667-39.71845654l-64.585728-86.00507733s-41.8301728 34.48285867-52.22855147 39.40533973a159.65297813 159.65297813 0 0 0-15.32450133-5.08268053c-5.62881387-1.40538347-21.1863328-56.52844053-21.1863328-56.52844053l-86.8643264-0.7063328s-9.38257067 53.40091733-23.45460694 57.07821546a103.11725547 103.11725547 0 0 0-14.0720352 5.31569707c-10.39837867-5.08268053-52.22855147-40.03157333-52.22855146-40.03157333l-64.585728 87.4104608s32.36750187 32.60416 34.56295893 43.55231253a169.89115733 169.89115733 0 0 0-3.833856 10.47483733 639.34737067 639.34737067 0 0 1-53.40091733 12.66301227l0.15291733 86.71140907s45.973504 9.535488 54.72984107 17.27965866c1.79859947 5.00258133 3.91031467 9.85224533 6.094848 14.62181014-10.6350368 13.29288533-38.93566613 35.3421088-38.93566507 35.3421088l66.617344 86.71140906s52.30865067-33.85662613 60.90842987-35.8117824c4.29989013 1.87505813 8.6034208 3.59719787 13.0562272 5.16277974 7.897088 2.7343072 13.4494432 53.248 13.44944426 53.248l86.79150934 0.2330176s2.89450667-49.57434347 9.3024704-51.52586027a178.2724832 178.2724832 0 0 0 18.4520256-6.88128c7.27085547 2.81440747 41.5971552 37.060608 41.5971552 37.060608l85.85216-87.41045973s-31.82136853-21.9727648-40.65780587-33.85662614a174.72989867 174.72989867 0 0 0 6.5681632-15.171584c2.72702613-8.126464 55.738368-19.1510752 55.74200853-19.1510752m-220.88180586 65.75445334c-60.49701013 0.00728213-109.54706453-49.02821013-109.55434667-109.52522027s49.02821013-109.54706453 109.5252192-109.55434667h0.02912747c60.49701013 0.00728213 109.53250133 49.05733653 109.5252192 109.55434667-0.00728213 60.48608747-49.0391328 109.52157867-109.5252192 109.52522027zM424.43662187 844.49325547c-61.93516053-5.1919072-130.55499413-10.4020192-199.0473952-16.9446976-30.09194667-2.87266133-60.227584-7.01963413-89.78432-13.2346304-28.34432-5.96013547-34.84330667-17.36339947-26.4255712-44.7974976 15.78689387-51.44940053 31.3407712-103.09905067 50.33892906-153.4015712 21.4484768-56.79422613 65.31390613-88.25150613 125.70897067-90.47608854 77.89681813-2.8653792 155.93562987-2.1772512 233.91254827-2.2136608 23.02498133-0.00728213 28.53000533 9.6483552 18.5940192 30.61623467-12.75039253 26.90616853-28.540928 52.52346347-39.45631254 80.10683733-21.72154347 54.89004053-22.6900192 111.62965333-8.67623893 168.7734048 1.14323947 4.65669653 2.0789472 9.404416 2.555904 14.1703392 1.6201952 16.1400608-2.8653792 22.216704-19.1656384 24.09176214-13.83901867 1.5910688-27.81639147 1.95515733-48.55489493 3.309568z" p-id="130934" fill="#b4bfcc"></path></svg>