<?xml version="1.0" standalone="no"?><!DOCTYPE svg PUBLIC "-//W3C//DTD SVG 1.1//EN" "http://www.w3.org/Graphics/SVG/1.1/DTD/svg11.dtd"><svg t="1516867628554" class="icon" style="" viewBox="0 0 1085 1024" version="1.1" xmlns="http://www.w3.org/2000/svg" p-id="14886" xmlns:xlink="http://www.w3.org/1999/xlink" width="50.859375" height="48"><defs><style type="text/css"></style></defs><path d="M1085.252583 512.296606c0-46.758262-11.262125-105.806985-11.386021-106.389295-5.27796-27.963275-21.248124-46.002498-40.68737-46.002498l-5.612478 0.01239c-82.105725 0-148.897933-66.804598-148.897933-148.910322 0-27.368575 12.87277-56.930105 13.009056-57.202676 10.902827-24.58092 2.465526-54.885825-19.699427-70.348016l-1.338075-0.929219L733.016918 6.244347c-22.561419-9.800155-53.931827-3.431913-70.8436 14.124117-17.283459 17.828601-71.884324 64.09128-116.672644 64.09128-45.209565 0-100.132559-47.154729-117.465576-65.305458C411.185274 1.375243 379.901592-5.203622 357.241057 4.472637l-1.523918 0.631869-142.294289 78.364072c-22.25168 15.449802-30.73854 45.692759-19.773764 70.385185 1.362853 3.22129 12.971887 31.135006 12.971887 57.153118 0 82.105725-66.804598 148.910322-148.910322 148.910322h-4.769987c-20.318906 0-36.251901 18.039224-41.529861 45.95294C11.299296 406.477232 0.024782 466.256939 0.024782 512.296606c0 46.052057 11.274515 105.831764 11.386021 106.426464 5.27796 27.926106 21.235734 45.96533 40.66259 45.96533l5.637258-0.01239c82.105725 0 148.910322 66.804598 148.910322 148.922712 0 26.018111-11.584254 53.882269-12.897549 56.967274-11.014334 24.803933-2.589422 55.096448 19.538362 70.595808l1.313295 0.904439 134.972049 75.303847c22.957886 10.109895 54.241567 3.357575 70.955105-14.842713 17.432134-18.943663 72.863101-68.117893 119.274455-68.117893 46.53525 0 102.44941 50.128227 120.054998 69.431188 11.398411 12.57542 29.090726 20.058725 47.328183 20.058725h0.01239a58.850489 58.850489 0 0 0 23.478247-4.68326l1.47436-0.631869 139.791594-77.472023c22.202121-15.449802 30.676592-45.705148 19.711816-70.385185-0.545141-1.263737-12.959497-30.131451-12.959497-57.153117 0-82.105725 66.792208-148.910322 148.897933-148.910322h4.782376c20.269347 0 36.251901-18.039224 41.529861-45.940551 0.111506-0.607089 11.373631-59.655812 11.373632-106.426464z m-62.455856 95.313014l-0.87966 4.831935-4.893883 0.260181c-106.897268 5.55053-190.626027 93.789096-190.626027 200.896986 0 35.880214 14.198455 70.744483 17.035668 77.360517l2.217734 5.154064-138.478298 75.551638a14.867492 14.867492 0 0 1-7.6072-2.093838l-1.214179-1.015945c-2.019501-2.217734-20.554308-22.202121-47.526416-42.236067-39.473191-29.301349-76.827765-44.156451-111.060166-44.156452-33.885492 0-70.979885 14.582532-110.217674 43.33874a363.175661 363.175661 0 0 0-47.328183 41.467913l-1.16462 0.966387a14.842713 14.842713 0 0 1-7.557642 2.069059h-1.610645l-1.697372-0.780543-130.598528-73.086113 2.217735-5.129285c2.849603-6.603644 17.072837-41.393576 17.072836-77.422465 0-107.10789-83.728759-195.346456-190.613637-200.896986l-4.906272-0.260181-0.867271-4.831935c-1.709762-9.453247-10.209011-58.429244-10.209011-95.313013 0-36.958107 8.511639-85.896935 10.209011-95.313014l0.867271-4.831934 4.906272-0.260182c106.884878-5.55053 190.613637-93.789096 190.613637-200.884596 0-36.00411-14.186065-70.707314-17.023278-77.298569l-2.242513-5.178843 140.163281-76.406519c4.38591-0.446025 7.718706 1.115062 9.465636 2.279682l1.040725 0.86727a355.667578 355.667578 0 0 0 46.82021 39.857268c38.705038 27.603977 75.167562 41.579419 108.396406 41.57942 32.894326 0 69.08428-13.715261 107.541526-40.774097 27.380964-19.278181 45.767096-38.296182 46.54764-39.089115l1.090282-0.892049c1.722151-1.127451 4.955831-2.254903 8.301017-2.254903h1.610645l1.932774 0.780543 133.138391 73.990552-2.205345 5.141674c-2.849603 6.640813-17.060447 41.616588-17.060447 77.410076 0 107.095501 83.728759 195.321676 190.626027 200.872206l4.906272 0.260182 0.867271 4.831934c1.709762 9.440857 10.196622 58.379685 10.196621 95.313014 0 37.18112-8.49925 85.934104-10.196621 95.325403z" p-id="14887"></path><path d="M540.235104 327.716693c-101.383906 0-183.848928 82.477412-183.848928 183.861318s82.465022 183.861318 183.848928 183.861318 183.861318-82.477412 183.861318-183.861318-82.489802-183.861318-183.861318-183.861318z m0 315.463402c-72.565751 0-131.602084-59.036333-131.602083-131.602084s59.036333-131.602084 131.602083-131.602084 131.614473 59.036333 131.614473 131.602084-59.048722 131.602084-131.614473 131.602084z" p-id="14888"></path></svg>