<?xml version="1.0" standalone="no"?><!DOCTYPE svg PUBLIC "-//W3C//DTD SVG 1.1//EN" "http://www.w3.org/Graphics/SVG/1.1/DTD/svg11.dtd"><svg t="1516866988930" class="icon" style="" viewBox="0 0 1024 1024" version="1.1" xmlns="http://www.w3.org/2000/svg" p-id="11711" xmlns:xlink="http://www.w3.org/1999/xlink" width="48" height="48"><defs><style type="text/css"></style></defs><path d="M697.047 962.007l-31.09-0.309-347.035 0.142c-18.637 0-39.903-0.88-56.257-11.513-10.17-6.375-23.609-19.22-29.782-35.515-4.996-13.345-4.83-27.879-4.675-41.937l0.047-69.983V520.833a88.989 88.989 0 0 1-11.953 5.995c-20.374 8.456-48.253 4.114-68.353-9.836-7.124-5.043-12.416-10.515-17.079-15.331l-10.692-10.526-37.203-35.752A2175.512 2175.512 0 0 1 62.6 434.77c-6.34-5.423-12.144-11.323-17.936-17.246l-6.22-6.303c-1.773-1.75-3.7-3.497-5.59-5.246-8.231-7.528-18.472-16.9-24.954-31.792C4.356 366.252-2.28 351.42 0.836 335.185c5.542-29.449 23.597-45.529 38.108-58.446 5.03-4.448 8.587-8.112 12.156-11.75 4.103-4.176 8.207-8.35 12.547-12.24L228.055 91.875c7.707-7.862 18.174-18.53 33.873-24.596l24.36-5.935s67.408-4.475 89.273 0c7.895 1.616 22.634 9.67 28.795 14.487 9.218 7.089 15.771 15.533 21.552 22.978l1.559 1.999c4.662 5.97 15.807 13.69 25.916 17.935 11.965 4.96 25.571 8.112 42.163 11.24l19.756 1.249c3.52 0 8.647-0.666 14.451-1.879 32.042-6.447 44.958-10.811 63.536-25.62 1.642-1.32 4.02-4.555 6.327-7.682 4.115-5.614 9.254-12.608 16.96-18.305l18.65-12.049c3.973-1.558 12.149-3.97 15.628-4.579 6.835-1.197 59.635 0 66.153 0 24.002 0 39.011 2.105 50.144 7.957 12.56 6.78 21.647 15.843 29.639 23.835l154.308 150.883c6.304 6.733 12.275 12.25 18.221 17.794 7.065 6.577 14.13 13.166 20.648 20.243 1.665 1.76 3.544 3.627 5.4 5.47 8.563 8.48 19.22 19.042 25.38 36.228l1.38 6.554c0.143 2.295 0.238 4.59 0.286 6.898 3.9 28.211-11.585 47.813-17.508 55.293l-2.117 2.355-97.957 95.59c-12.917 14.606-30.638 34.61-57.875 39.653-21.766 4.032-38.678-1.297-51.738-9.123V803.51c-0.047 31.495-0.19 63.037-0.357 94.46l-0.5 4.829c-3.424 16.437-13.391 32.708-26.07 42.46-20.362 15.464-47.432 16.75-71.244 16.75zM339.012 912.98l358.036 0.31c9.8 0 32.803 0 41.676-6.733 2.544-1.974 5.922-6.946 7.445-11.775 0.143-30.4 0.286-60.896 0.333-91.32V461.33l31.447-21.504 26.451 25.667c12.631 12.405 20.362 18.959 33.707 16.473 10.728-1.986 21.1-13.701 30.257-24.038l2.974-3.354 96.267-93.699c5.781-7.528 7.422-12.131 6.47-17.78l-0.332-3.546c0-0.808-0.023-1.617-0.047-2.426-2.45-5.007-6.28-8.956-12.607-15.224-2.236-2.223-4.495-4.471-6.756-6.838-5.876-6.376-12.036-12.085-18.197-17.805-6.803-6.34-13.607-12.69-19.91-19.47L762.391 127.389c-6.209-6.185-12.061-12.036-18.15-15.319-0.642-0.332-6.137-2.628-27.236-2.628-6.09 0-12.275 0.166-18.221 0.32-5.9 0.155-11.56 0.299-16.698 0.299H662.58c-2.83 0.88-5.256 1.248-7.016 1.487l-10.8 6.03c-1.689 1.593-3.806 4.495-5.9 7.314-3.758 5.126-8.42 11.49-15.128 16.878-26.428 21.04-47.337 27.891-84.208 35.312-13.345 2.771-24.537 3.568-33.504 2.2l-17.9-1.13c-20.291-3.77-37.144-7.671-53.497-14.45-14.356-6.031-33.755-17.805-45.553-32.91l-1.641-2.105c-4.58-5.887-8.516-10.966-12.929-14.356-1.153-0.643-2.985-1.153-4.77-1.784a128.432 128.432 0 0 1-6.422-2.485h-61.788l-14.439 1.237c-9.753 0.321-14.487 4.734-24.239 14.688l-29.83 29.271-136.066 133.03c-4.33 3.913-7.695 7.374-11.073 10.811-4.377 4.472-8.79 8.933-13.464 13.06-14.32 12.761-21.35 19.505-23.716 32.113 0 1.796 2.331 7.005 3.318 9.23 2.795 6.386 6.816 10.216 13.726 16.543 2.319 2.117 4.662 4.27 6.946 6.517l6.827 6.91c4.983 5.103 9.931 10.217 15.414 14.844l1.796 1.665c6.743 6.934 13.546 13.796 20.338 20.6l48.824 47.206c3.651 3.782 6.803 7.041 10.014 9.313 4.888 3.39 16.02 7.077 21.86 4.675 9.135-3.747 16.295-10.966 24.585-19.328 4.15-4.186 19.66-21.331 19.66-21.331l34.968 20.213-0.06 412.093c-0.095 9.134-0.213 19.481 1.56 24.215 1.331 3.52 6.208 8.992 10.394 11.608 5.97 3.878 24.097 3.878 30.055 3.878l20.089-0.143z" fill="" p-id="11712"></path></svg>