<?xml version="1.0" standalone="no"?><!DOCTYPE svg PUBLIC "-//W3C//DTD SVG 1.1//EN" "http://www.w3.org/Graphics/SVG/1.1/DTD/svg11.dtd"><svg t="1516945721725" class="icon" style="" viewBox="0 0 1024 1024" version="1.1" xmlns="http://www.w3.org/2000/svg" p-id="54061" xmlns:xlink="http://www.w3.org/1999/xlink" width="48" height="48"><defs><style type="text/css"></style></defs><path d="M799.631816 223.855928v159.823912c0 46.615308-9.732866 97.84092-29.198599 153.164582-19.465733 55.323662-49.176588 98.865433-89.132567 131.137569l277.642822 132.162081 15.87994 8.196098c10.757379 4.098049 21.514757 11.269635 31.75988 22.027014 10.757379 10.757379 15.87994 22.027014 15.87994 33.808904v95.791896c0 17.416708-6.147074 32.272136-18.953477 45.078539-12.806403 12.806403-27.661831 18.953477-45.078539 18.953477H64.032016c-17.416708 0-32.272136-6.147074-45.078539-18.953477-12.806403-12.806403-18.953477-27.661831-18.953477-45.078539v-95.791896c0-10.757379 6.147074-21.514757 17.928964-32.784392s21.514757-18.953477 28.174088-23.051526c6.65933-4.098049 12.806403-6.65933 17.928964-8.196098l279.691846-133.698849c-39.955978-31.75988-70.17909-75.813907-90.157079-132.162081S223.343672 428.246123 223.343672 384.192096V223.855928c0-53.274637 30.223112-103.987994 91.181591-152.14007C375.483742 24.076038 440.54027 0 510.71936 0s135.747874 24.076038 196.706353 71.715858c61.470735 48.152076 92.206103 98.865433 92.206103 152.14007zM360.628314 117.818909c-48.664332 35.857929-72.74037 71.203602-72.74037 106.037019v159.823912c0 35.857929 8.708354 77.862931 26.125063 124.990495 17.416708 47.127564 41.492746 82.985493 71.715857 107.061531 17.416708 15.87994 24.588294 35.857929 22.027014 58.909455-2.561281 23.563782-14.855428 39.443722-35.857929 49.176588l-281.74087 133.698849c-17.416708 8.196098-26.125063 19.977989-26.125063 35.857929v66.081041h895.423712v-64.032016c0-19.977989-8.708354-32.784392-26.125063-37.906954h-2.049024l-277.642822-132.162081c-21.514757-10.757379-33.296648-27.661831-35.857929-51.225612-2.561281-23.051526 5.122561-42.517259 24.076038-56.860431 30.735368-25.10055 53.786893-61.470735 70.17909-108.086043 15.87994-46.615308 24.076038-88.62031 24.076038-126.015007V223.855928c0-34.833417-24.076038-70.17909-71.715858-106.037019S565.530765 64.032016 512.256128 64.032016C460.006003 64.032016 409.292646 81.96098 360.628314 117.818909z" fill="#2c2c2c" p-id="54062"></path></svg>