<?xml version="1.0" standalone="no"?><!DOCTYPE svg PUBLIC "-//W3C//DTD SVG 1.1//EN" "http://www.w3.org/Graphics/SVG/1.1/DTD/svg11.dtd"><svg t="1516950813222" class="icon" style="" viewBox="0 0 1024 1024" version="1.1" xmlns="http://www.w3.org/2000/svg" p-id="149706" xmlns:xlink="http://www.w3.org/1999/xlink" width="48" height="48"><defs><style type="text/css"></style></defs><path d="M923.392116 460.791711l-39.470967 0c-18.088984 0-37.266765-14.134929-42.669822-31.41243l-22.633486-55.066153c-8.556886-15.943111-5.055133-39.435151 7.67582-52.236712l28.01403-27.944446c12.824073-12.836353 12.824073-33.767058 0-46.567595l-46.543036-46.496987c-12.801561-12.778024-33.718963-12.778024-46.543036 0l-27.991518 27.979238c-12.754488 12.790304-36.292578 16.292058-52.271504 7.721869l-54.984289-22.645766c-17.231453-5.344728-31.422663-24.534789-31.422663-42.647309l0-39.469943c0-18.054191-14.843056-32.908504-32.861432-32.908504l-65.745377 0c-18.111496 0-32.931017 14.854313-32.931017 32.908504l0 39.469943c0 18.11252-14.099113 37.302581-31.400151 42.647309l-55.054897 22.645766c-15.95539 8.570189-39.422871 5.090948-52.178383-7.721869l-28.084639-27.979238c-12.778024-12.778024-33.695427-12.778024-46.473451 0l-46.496987 46.496987c-12.801561 12.801561-12.801561 33.731242 0 46.520523l27.92091 27.991518c12.847609 12.801561 16.325827 36.293601 7.745405 52.236712l-22.657023 55.112202c-5.357008 17.253966-24.5133 31.400151-42.647309 31.400151l-39.446407-0.034792c-18.088984 0-32.907481 14.784728-32.907481 32.895201l0 65.745377c0 18.088984 14.818497 32.91976 32.907481 32.91976l39.446407 0c18.135032 0.033769 37.244252 14.179954 42.577724 31.410384l22.726607 55.054897c8.510838 15.977903 5.055133 39.540552-7.745405 52.271504l-27.991518 27.969005c-12.730952 12.800537-12.730952 33.717939 0 46.542013l46.566572 46.543036c12.778024 12.766768 33.695427 12.766768 46.473451 0l28.037567-28.01403c12.731976-12.754488 36.224016-16.244986 52.108798-7.607258l55.17053 22.63451c17.300015 5.379521 31.400151 24.535813 31.400151 42.647309l0 39.35431c0 18.054191 14.773472 32.872688 32.931017 32.872688l65.745377 0c18.018376 0 32.861432-14.818497 32.861432-32.872688l0-39.35431c0-18.111496 14.19121-37.267788 31.422663-42.647309l55.100946-22.63451c15.931854-8.637728 39.493479-5.14723 52.271504 7.607258l27.874861 28.01403c12.824073 12.766768 33.742499 12.766768 46.543036 0l46.543036-46.543036c12.824073-12.824073 12.824073-33.742499 0-46.542013l-28.01403-27.969005c-12.730952-12.730952-16.232706-36.293601-7.67582-52.271504l22.633486-55.054897c5.403057-17.23043 24.62791-31.376615 42.669822-31.376615l39.470967 0c18.041912 0 32.836873-14.794961 32.836873-32.883945L956.226942 493.686912C956.228989 475.575416 941.434028 460.791711 923.392116 460.791711M693.272042 526.514575c0 90.824565-73.607438 164.385954-164.397211 164.385954-90.815355 0-164.42177-73.561389-164.42177-164.385954 0-90.779539 73.606415-164.386978 164.42177-164.386978C619.665627 362.127597 693.272042 435.734012 693.272042 526.514575" p-id="149707" fill="#b4bfcc"></path></svg>