<?xml version="1.0" standalone="no"?><!DOCTYPE svg PUBLIC "-//W3C//DTD SVG 1.1//EN" "http://www.w3.org/Graphics/SVG/1.1/DTD/svg11.dtd"><svg t="1516866631053" class="icon" style="" viewBox="0 0 1024 1024" version="1.1" xmlns="http://www.w3.org/2000/svg" p-id="2760" xmlns:xlink="http://www.w3.org/1999/xlink" width="48" height="48"><defs><style type="text/css"></style></defs><path d="M926.26863 957.936375l-55.567573 0C859.981924 816.071344 768.64366 697.151907 642.9264 647.223774c-39.952944 19.377326-84.538395 30.569226-131.806955 30.569226-47.273676 0-91.879594-11.192923-131.830491-30.569226-125.716236 49.928133-217.054501 168.847569-227.756237 310.713624l-55.584969 0c9.907651-151.502529 99.44899-280.826943 226.671533-346.280678C251.660158 555.227524 205.943954 467.874013 205.943954 369.606942c0-170.193217 136.641053-308.165592 305.176514-308.165592 168.520111 0 305.160141 137.973398 305.160141 308.165592 0 98.267071-45.716204 185.620581-116.67328 242.049778C826.829873 677.110455 916.358933 806.434869 926.26863 957.936375zM760.786715 369.606942c0-139.254577-111.795179-252.137531-249.666246-252.137531-137.89665 0-249.693876 112.882953-249.693876 252.137531 0 139.248438 111.797225 252.144694 249.693876 252.144694C648.991536 621.751636 760.786715 508.85538 760.786715 369.606942z" p-id="2761"></path></svg>